<?xml version="1.0" encoding="utf-8"?>
<!-- Generator: Adobe Illustrator 25.4.1, SVG Export Plug-In . SVG Version: 6.00 Build 0)  -->
<svg version="1.1" id="Ebene_1" xmlns="http://www.w3.org/2000/svg" xmlns:xlink="http://www.w3.org/1999/xlink" x="0px" y="0px"
	 viewBox="0 0 669 750" style="enable-background:new 0 0 669 750;" xml:space="preserve">
<style type="text/css">
	.st0{fill:#DDDFE2;}
</style>
<g>
	<path class="st0" d="M334.8,212.3h156.3c0-86.6-70.3-156.9-156.3-156.9V212.3z"/>
	<path class="st0" d="M334.8,525h156.3c0-86.6-70.3-156.3-156.3-156.3V525z"/>
	<path class="st0" d="M491.1,368.6h156.3c0-86.6-70.3-156.3-156.3-156.3V368.6z"/>
	<path class="st0" d="M334.8,212.3v156.3c-86.6,0-156.3-70.3-156.3-156.3C178.5,212.3,334.8,212.3,334.8,212.3z"/>
	<path class="st0" d="M177.9,368.6V525c-86,0-156.3-69.7-156.3-156.3H177.9z"/>
	<path class="st0" d="M334.8,525v156.3c-86.6,0-156.3-70.3-156.3-156.3H334.8z"/>
</g>
</svg>
