<?xml version="1.0" encoding="utf-8"?>
<!-- Generator: Adobe Illustrator 25.3.0, SVG Export Plug-In . SVG Version: 6.00 Build 0)  -->
<svg version="1.1" id="Ebene_1" xmlns="http://www.w3.org/2000/svg" xmlns:xlink="http://www.w3.org/1999/xlink" x="0px" y="0px"
	 viewBox="0 0 100 100" style="enable-background:new 0 0 100 100;" xml:space="preserve">
<style type="text/css">
	.st0{fill:#E8EEF4;}
	.st1{fill:none;stroke:#215789;stroke-width:2;}
	.st2{fill:#FFFFFF;}
</style>
<g id="Gruppe_584" transform="translate(0 100)">
	<g>
		<g id="Gruppe_574">
			<g id="Gruppe_570" transform="translate(60 -60)">
				<path id="Pfad_323" class="st0" d="M0,0v60c-33.1,0-60-26.9-60-60H0z"/>
			</g>
			<g id="Gruppe_571" transform="translate(60 -21)">
				<path id="Pfad_324" class="st1" d="M0,0c21.5,0,39-17.5,39-39S21.5-78,0-78s-39,17.5-39,39S-21.5,0,0,0z"/>
			</g>
			<g id="Gruppe_572" transform="translate(74.778 -78.301)">
				<path id="Pfad_325" class="st2" d="M0,0h-3.6v-4.2h-5V0H-21v-4.2h-5V0h-3.6c-2.3,0-4.2,1.9-4.2,4.2c0,0,0,0,0,0v29.5
					c0,2.3,1.9,4.2,4.2,4.2c0,0,0,0,0,0H0c2.3,0,4.2-1.9,4.2-4.2c0,0,0,0,0,0V4.2C4.2,1.9,2.3,0,0,0C0,0,0,0,0,0"/>
			</g>
			<g id="Gruppe_573" transform="translate(74.778 -78.301)">
				<path id="Pfad_326" class="st1" d="M0,0h-3.6v-4.2h-5V0H-21v-4.2h-5V0h-3.6c-2.3,0-4.2,1.9-4.2,4.2c0,0,0,0,0,0v29.5
					c0,2.3,1.9,4.2,4.2,4.2c0,0,0,0,0,0H0c2.3,0,4.2-1.9,4.2-4.2c0,0,0,0,0,0V4.2C4.2,1.9,2.3,0,0,0C0,0,0,0,0,0z"/>
			</g>
		</g>
	</g>
	<g id="Gruppe_575" transform="translate(45.827 -67.63)">
		<path id="Pfad_328" class="st1" d="M0,0h5.7"/>
	</g>
	<g id="Gruppe_576" transform="translate(57.165 -67.63)">
		<path id="Pfad_329" class="st1" d="M0,0h5.7"/>
	</g>
	<g id="Gruppe_577" transform="translate(68.504 -67.63)">
		<path id="Pfad_330" class="st1" d="M0,0h5.7"/>
	</g>
	<g id="Gruppe_578" transform="translate(45.827 -59)">
		<path id="Pfad_331" class="st1" d="M0,0h5.7"/>
	</g>
	<g id="Gruppe_579" transform="translate(57.165 -59)">
		<path id="Pfad_332" class="st1" d="M0,0h5.7"/>
	</g>
	<g id="Gruppe_580" transform="translate(68.504 -59)">
		<path id="Pfad_333" class="st1" d="M0,0h5.7"/>
	</g>
	<g id="Gruppe_581" transform="translate(45.827 -50.37)">
		<path id="Pfad_334" class="st1" d="M0,0h5.7"/>
	</g>
	<g id="Gruppe_582" transform="translate(57.165 -50.37)">
		<path id="Pfad_335" class="st1" d="M0,0h5.7"/>
	</g>
	<g id="Gruppe_583" transform="translate(68.504 -50.37)">
		<path id="Pfad_336" class="st1" d="M0,0h5.7"/>
	</g>
</g>
</svg>
