<?xml version="1.0" encoding="utf-8"?>
<!-- Generator: Adobe Illustrator 25.3.0, SVG Export Plug-In . SVG Version: 6.00 Build 0)  -->
<svg version="1.1" id="Ebene_1" xmlns="http://www.w3.org/2000/svg" xmlns:xlink="http://www.w3.org/1999/xlink" x="0px" y="0px"
	 viewBox="0 0 100 100" style="enable-background:new 0 0 100 100;" xml:space="preserve">
<style type="text/css">
	.st0{fill:#E8EEF4;}
	.st1{fill:none;stroke:#215789;stroke-width:2;}
	.st2{fill:#FFFFFF;}
</style>
<g id="Gruppe_592" transform="translate(0 100)">
	<g>
		<g id="Gruppe_591">
			<g id="Gruppe_585" transform="translate(60 -60)">
				<path id="Pfad_337" class="st0" d="M0,0v60c-33.1,0-60-26.9-60-60H0z"/>
			</g>
			<g id="Gruppe_586" transform="translate(60 -21)">
				<path id="Pfad_338" class="st1" d="M0,0c21.5,0,39-17.5,39-39S21.5-78,0-78s-39,17.5-39,39S-21.5,0,0,0z"/>
			</g>
			<g id="Gruppe_587" transform="translate(60 -80.246)">
				<path id="Pfad_339" class="st2" d="M0,0c-7.7,0-14,6.3-14,14c0,10.5,14,26,14,26s14-15.5,14-26C14,6.3,7.7,0,0,0"/>
			</g>
			<g id="Gruppe_588" transform="translate(60 -80.246)">
				<path id="Pfad_340" class="st1" d="M0,0c-7.7,0-14,6.3-14,14c0,10.5,14,26,14,26s14-15.5,14-26C14,6.3,7.7,0,0,0z"/>
			</g>
			<g id="Gruppe_589" transform="translate(60 -61)">
				<path id="Pfad_341" class="st2" d="M0,0c2.8,0,5-2.2,5-5s-2.2-5-5-5s-5,2.2-5,5S-2.8,0,0,0"/>
			</g>
			<g id="Gruppe_590" transform="translate(60 -61)">
				<path id="Pfad_342" class="st1" d="M0,0c2.8,0,5-2.2,5-5s-2.2-5-5-5s-5,2.2-5,5S-2.8,0,0,0z"/>
			</g>
		</g>
	</g>
</g>
</svg>
