<?xml version="1.0" encoding="utf-8"?>
<!-- Generator: Adobe Illustrator 25.3.0, SVG Export Plug-In . SVG Version: 6.00 Build 0)  -->
<svg version="1.1" id="Ebene_1" xmlns="http://www.w3.org/2000/svg" xmlns:xlink="http://www.w3.org/1999/xlink" x="0px" y="0px"
	 viewBox="0 0 100 100" style="enable-background:new 0 0 100 100;" xml:space="preserve">
<style type="text/css">
	.st0{fill:#E8EEF4;}
	.st1{fill:none;stroke:#215789;stroke-width:2;}
	.st2{fill:#FFFFFF;}
	.st3{fill:#FFFFFF;stroke:#215789;stroke-width:2;stroke-linejoin:round;}
</style>
<g id="Gruppe_600" transform="translate(0 100)">
	<g>
		<g id="Gruppe_597">
			<g id="Gruppe_593" transform="translate(60 -60)">
				<path id="Pfad_344" class="st0" d="M0,0v60c-33.1,0-60-26.9-60-60H0z"/>
			</g>
			<g id="Gruppe_594" transform="translate(60 -21)">
				<path id="Pfad_345" class="st1" d="M0,0c21.5,0,39-17.5,39-39S21.5-78,0-78s-39,17.5-39,39S-21.5,0,0,0z"/>
			</g>
			<g id="Gruppe_595" transform="translate(42.835 -76.929)">
				<path id="Pfad_346" class="st2" d="M0,0c-1.6,0-2.8,1.3-2.8,2.8l0,0v24.3c0,1.6,1.3,2.8,2.8,2.8h34.3c1.6,0,2.8-1.3,2.8-2.8
					c0,0,0,0,0,0V2.8c0-1.6-1.3-2.8-2.8-2.8c0,0,0,0,0,0H0z"/>
			</g>
			<g id="Gruppe_596" transform="translate(42.835 -76.929)">
				<path id="Pfad_347" class="st1" d="M0,0c-1.6,0-2.8,1.3-2.8,2.8l0,0v24.3c0,1.6,1.3,2.8,2.8,2.8h34.3c1.6,0,2.8-1.3,2.8-2.8
					c0,0,0,0,0,0V2.8c0-1.6-1.3-2.8-2.8-2.8c0,0,0,0,0,0H0z"/>
			</g>
		</g>
	</g>
	<g id="Gruppe_598" transform="translate(80 -42.071)">
		<path id="Pfad_349" class="st1" d="M0,0h-40"/>
	</g>
	<g id="Gruppe_599" transform="translate(45.449 -60.279)">
		<path id="Pfad_350" class="st3" d="M0,0h5.8l2.9-6.5l5.8,12.8l5.8-15.9L23.3,0H30"/>
	</g>
</g>
</svg>
