<?xml version="1.0" encoding="utf-8"?>
<!-- Generator: Adobe Illustrator 25.3.0, SVG Export Plug-In . SVG Version: 6.00 Build 0)  -->
<svg version="1.1" id="Ebene_1" xmlns="http://www.w3.org/2000/svg" xmlns:xlink="http://www.w3.org/1999/xlink" x="0px" y="0px"
	 viewBox="0 0 100 100" style="enable-background:new 0 0 100 100;" xml:space="preserve">
<style type="text/css">
	.st0{fill:#E8EEF4;}
	.st1{fill:none;stroke:#215789;stroke-width:2;}
	.st2{fill:#FFFFFF;}
</style>
<g id="Gruppe_569" transform="translate(0 100)">
	<g>
		<g id="Gruppe_566">
			<g id="Gruppe_560" transform="translate(60 -60)">
				<path id="Pfad_314" class="st0" d="M0,0v60c-33.1,0-60-26.9-60-60H0z"/>
			</g>
			<g id="Gruppe_561" transform="translate(60 -21)">
				<path id="Pfad_315" class="st1" d="M0,0c21.5,0,39-17.5,39-39S21.5-78,0-78s-39,17.5-39,39S-21.5,0,0,0z"/>
			</g>
			<g id="Gruppe_562" transform="translate(60 -85.359)">
				<path id="Pfad_316" class="st2" d="M0,0c5.2,0,9.5,4.2,9.5,9.5C9.5,14.7,5.2,19,0,19c0,0,0,0,0,0c-5.2,0-9.5-4.2-9.5-9.5
					c0,0,0,0,0,0C-9.5,4.2-5.2,0,0,0 M19,41.3h-38v-6.5C-19,28.5-6.3,25,0,25s19,3.5,19,9.8V41.3z"/>
			</g>
			<g id="Gruppe_563" transform="translate(60 -85.359)">
				<path id="Pfad_317" class="st1" d="M0,0c5.2,0,9.5,4.2,9.5,9.5C9.5,14.7,5.2,19,0,19c0,0,0,0,0,0c-5.2,0-9.5-4.2-9.5-9.5
					c0,0,0,0,0,0C-9.5,4.2-5.2,0,0,0z M19,41.3h-38v-6.5C-19,28.5-6.3,25,0,25s19,3.5,19,9.8V41.3z"/>
			</g>
			<g id="Gruppe_564" transform="translate(60 -53.616)">
				<path id="Pfad_318" class="st2" d="M0,0c5.2,0,9.5,4.2,9.5,9.5C9.5,14.7,5.2,19,0,19c0,0,0,0,0,0c-5.2,0-9.5-4.2-9.5-9.5
					c0,0,0,0,0,0C-9.5,4.2-5.2,0,0,0"/>
			</g>
			<g id="Gruppe_565" transform="translate(60 -53.616)">
				<path id="Pfad_319" class="st1" d="M0,0c5.2,0,9.5,4.2,9.5,9.5C9.5,14.7,5.2,19,0,19c0,0,0,0,0,0c-5.2,0-9.5-4.2-9.5-9.5
					c0,0,0,0,0,0C-9.5,4.2-5.2,0,0,0z"/>
			</g>
		</g>
	</g>
	<g id="Gruppe_567" transform="translate(55.748 -44.129)">
		<path id="Pfad_321" class="st1" d="M0,0h8.5"/>
	</g>
	<g id="Gruppe_568" transform="translate(60 -39.876)">
		<path id="Pfad_322" class="st1" d="M0,0v-8.5"/>
	</g>
</g>
</svg>
