<?xml version="1.0" encoding="utf-8"?>
<!-- Generator: Adobe Illustrator 25.3.0, SVG Export Plug-In . SVG Version: 6.00 Build 0)  -->
<svg version="1.1" id="Ebene_1" xmlns="http://www.w3.org/2000/svg" xmlns:xlink="http://www.w3.org/1999/xlink" x="0px" y="0px"
	 viewBox="0 0 250 51.7" style="enable-background:new 0 0 250 51.7;" xml:space="preserve">
<style type="text/css">
	.st0{fill:#1F5D90;}
	.st1{fill:#97A5C6;}
</style>
<g>
	<path class="st0" d="M206.6,40.3c0,0.6-0.3,0.9-0.7,0.9h-1v1.1h1.6v5.1c0,1.6,0.9,2.5,2.3,2.5c0.7,0,1.2-0.3,1.2-0.3v-1.1
		c0,0-0.5,0.3-1.1,0.3c-0.7,0-1.1-0.4-1.1-1.3v-5.1h1.9v-1.1h-1.9v-2.8h-1.1v1.8H206.6z M203.3,42.2c0,0-1-1.1-2.7-1.1
		c-1.7,0-2.8,1.1-2.8,2.4c0,2.9,4.7,1.9,4.7,3.9c0,0.8-0.6,1.4-1.9,1.4c-1.4,0-2.2-1.2-2.2-1.2l-0.9,0.9c0,0,1,1.5,3.1,1.5
		c1.9,0,3.1-1.1,3.1-2.6c0-3-4.7-2-4.7-3.9c0-0.6,0.6-1.2,1.6-1.2c1.2,0,1.9,0.9,1.9,0.9L203.3,42.2z M193.9,38.3
		c0,0.4,0.4,0.8,0.8,0.8c0.4,0,0.8-0.4,0.8-0.8s-0.4-0.8-0.8-0.8C194.2,37.5,193.9,37.8,193.9,38.3 M194,49.8h1.2v-8.6H194V49.8z
		 M184.8,41.2h-1.2v8.6h1.2V45c0-1.7,1.1-2.8,2.7-2.8c1.3,0,2.3,1,2.3,2.5v5.1h1.2v-5.1c0-2.2-1.4-3.6-3.4-3.6
		c-1.9,0-2.7,1.4-2.7,1.4v-1.3H184.8z M181.9,41h-0.4c-1.9,0-2.8,1.3-2.8,1.3v-1.1h-1.2v8.6h1.2V45c0-1.7,1.2-2.7,2.7-2.7h0.5V41z
		 M171.1,42.2c1.5,0,2.7,1.2,2.8,2.7h-5.8C168.4,43.4,169.6,42.2,171.1,42.2 M175.1,45.9c0,0,0.1-0.3,0.1-0.6c0-2.5-1.8-4.2-4.1-4.2
		c-2.2,0-4.2,1.9-4.2,4.5c0,2.5,1.9,4.5,4.2,4.5c2.3,0,3.5-1.8,3.5-1.8l-0.8-0.8c0,0-1,1.4-2.7,1.4c-1.6,0-2.9-1.3-3-2.8L175.1,45.9
		z M162.3,40.3c0,0.6-0.3,0.9-0.7,0.9h-1v1.1h1.6v5.1c0,1.6,0.9,2.5,2.3,2.5c0.7,0,1.2-0.3,1.2-0.3v-1.1c0,0-0.5,0.3-1.1,0.3
		c-0.7,0-1.1-0.4-1.1-1.3v-5.1h1.9v-1.1h-1.9v-2.8h-1.1v1.8H162.3z M152.4,41.2h-1.2v8.6h1.2V45c0-1.7,1.1-2.8,2.7-2.8
		c1.3,0,2.3,1,2.3,2.5v5.1h1.2v-5.1c0-2.2-1.4-3.6-3.4-3.6c-1.9,0-2.7,1.4-2.7,1.4v-1.3H152.4z M146.5,49.8h1.3V37.2h-1.3V49.8z
		 M138.8,35.2h-1.1v16.5h1.1V35.2z M127.6,40.3c0,0.6-0.3,0.9-0.7,0.9h-1v1.1h1.6v5.1c0,1.6,0.9,2.5,2.3,2.5c0.7,0,1.2-0.3,1.2-0.3
		v-1.1c0,0-0.5,0.3-1.1,0.3c-0.7,0-1.1-0.4-1.1-1.3v-5.1h1.9v-1.1h-1.9v-2.8h-1.1v1.8H127.6z M124.4,41.2h-6.6v1.1h5l-5.2,6.3v1.2
		h6.9v-1.1h-5.4l5.2-6.3v-1.2H124.4z M116.8,41h-0.4c-1.9,0-2.8,1.3-2.8,1.3v-1.1h-1.2v8.6h1.2V45c0-1.7,1.2-2.7,2.7-2.7h0.5
		C116.8,42.3,116.8,41,116.8,41z M105.4,48.8c-1.2,0-1.8-0.6-1.8-1.3c0-0.8,0.5-1.3,1.6-1.5l2.9-0.5v0.5
		C108.2,47.7,106.9,48.8,105.4,48.8 M104.8,44.8c-1.6,0.3-2.5,1.1-2.5,2.6c0,1.2,1.2,2.5,3,2.5c1.9,0,2.7-1.3,2.7-1.3v1.1h1.2v-5.5
		c0-1.9-1.4-3.3-3.4-3.3s-3.2,1.6-3.2,1.6l0.8,0.8c0,0,0.9-1.2,2.4-1.2c1.2,0,2.1,0.9,2.1,2.1L104.8,44.8z M100.5,42.2
		c0,0-1-1.1-2.7-1.1c-1.7,0-2.8,1.1-2.8,2.4c0,2.9,4.7,1.9,4.7,3.9c0,0.8-0.6,1.4-1.9,1.4c-1.4,0-2.2-1.2-2.2-1.2l-0.9,0.9
		c0,0,1,1.5,3.1,1.5c1.9,0,3.1-1.1,3.1-2.6c0-3-4.7-2-4.7-3.9c0-0.6,0.6-1.2,1.6-1.2c1.2,0,1.9,0.9,1.9,0.9L100.5,42.2z M91.1,49.8
		h1.2v-8.6h-1.2v4.8c0,1.7-1.1,2.8-2.6,2.8c-1.3,0-2.4-1.1-2.4-2.6v-5.1h-1.2v5.1c0,2.2,1.5,3.7,3.4,3.7c1.9,0,2.7-1.3,2.7-1.3v1.2
		H91.1z M77.9,48.8c-1.2,0-1.8-0.6-1.8-1.3c0-0.8,0.5-1.3,1.6-1.5l2.9-0.5v0.5C80.7,47.7,79.5,48.8,77.9,48.8 M77.4,44.8
		c-1.6,0.3-2.5,1.1-2.5,2.6c0,1.2,1.2,2.5,3,2.5c1.9,0,2.7-1.3,2.7-1.3v1.1h1.3v-5.5c0-1.9-1.4-3.3-3.4-3.3c-2,0-3.2,1.6-3.2,1.6
		l0.8,0.8c0,0,0.9-1.2,2.4-1.2c1.2,0,2.1,0.9,2.1,2.1L77.4,44.8z M63,49.8h1.3V44h7v5.8h1.3V37.2h-1.3v5.6h-7v-5.6H63V49.8z"/>
	<path class="st0" d="M245.1,19.8c-0.4,0.4-1,0.6-1.6,0.6h-3.7V16h3.7c0.7,0,1.2,0.2,1.6,0.6c0.4,0.4,0.6,1,0.6,1.6
		C245.9,18.9,245.6,19.4,245.1,19.8 M236.2,29.5h3.5v-5.9h3.1l3.2,5.9h3.8l-3.5-6.3c0.6-0.3,1-0.6,1.5-1.1c0.4-0.4,0.7-0.9,1-1.5
		c0.3-0.6,0.5-1.4,0.5-2.3c0-0.8-0.1-1.5-0.4-2.1c-0.3-0.6-0.7-1.2-1.2-1.7c-0.5-0.5-1.1-0.9-1.8-1.2c-0.7-0.3-1.5-0.4-2.3-0.4h-7.4
		v16.7H236.2z M223.5,26.3v-3.7h6.8v-3.2h-6.8V16h8.7v-3.2H220v16.8h12.5v-3.2H223.5z M207.5,16c0.7,0,1.4,0.1,2,0.4
		c0.6,0.3,1.1,0.6,1.6,1.1c0.4,0.5,0.8,1,1,1.6c0.3,0.6,0.4,1.3,0.4,2s-0.1,1.4-0.4,2c-0.3,0.6-0.6,1.2-1.1,1.6
		c-0.4,0.5-1,0.8-1.6,1.1c-0.6,0.3-1.2,0.4-1.9,0.4h-2.6V16H207.5z M201.3,12.8v16.7h6.2c1.2,0,2.3-0.2,3.4-0.6c1-0.4,1.9-1,2.7-1.8
		c0.8-0.7,1.3-1.6,1.8-2.6c0.4-1,0.6-2.1,0.6-3.2s-0.2-2.2-0.6-3.2c-0.4-1-1-1.9-1.8-2.6s-1.6-1.3-2.7-1.8c-1-0.4-2.2-0.6-3.4-0.6
		h-6.2V12.8z M192.7,7.4h-7.6v2.4h7.6V7.4z M180.6,24.4c0.5,1,1.1,1.9,1.9,2.6c0.8,0.7,1.7,1.3,2.8,1.8c1.1,0.4,2.3,0.7,3.5,0.7
		c1.2,0,2.5-0.2,3.5-0.7c1.1-0.4,2-1,2.8-1.8c0.8-0.7,1.4-1.6,1.9-2.6c0.5-1,0.7-2.1,0.7-3.2s-0.2-2.2-0.7-3.2
		c-0.5-1-1.1-1.9-1.9-2.6c-0.8-0.7-1.7-1.3-2.8-1.8c-1.1-0.4-2.3-0.7-3.5-0.7c-1.2,0-2.5,0.2-3.5,0.7c-1.1,0.4-2,1-2.8,1.8
		c-0.8,0.7-1.4,1.6-1.9,2.6c-0.5,1-0.7,2.1-0.7,3.2S180.1,23.4,180.6,24.4 M183.9,19.1c0.3-0.6,0.7-1.2,1.1-1.6
		c0.5-0.5,1-0.8,1.7-1.1c0.6-0.3,1.3-0.4,2.1-0.4c0.7,0,1.4,0.1,2.1,0.4c0.6,0.3,1.2,0.6,1.7,1.1c0.5,0.5,0.9,1,1.1,1.6
		c0.3,0.6,0.4,1.3,0.4,2s-0.1,1.4-0.4,2c-0.3,0.6-0.7,1.2-1.1,1.6c-0.5,0.5-1,0.8-1.7,1.1c-0.6,0.3-1.3,0.4-2.1,0.4
		c-0.7,0-1.4-0.1-2.1-0.4c-0.6-0.3-1.2-0.6-1.7-1.1c-0.5-0.5-0.9-1-1.1-1.6c-0.3-0.6-0.4-1.3-0.4-2S183.7,19.7,183.9,19.1
		 M172.8,19.8c-0.4,0.4-1,0.6-1.6,0.6h-3.7V16h3.7c0.7,0,1.2,0.2,1.6,0.6c0.4,0.4,0.6,1,0.6,1.6C173.4,18.9,173.2,19.4,172.8,19.8
		 M163.9,29.5h3.5v-5.9h3.1l3.2,5.9h3.8l-3.5-6.3c0.6-0.3,1-0.6,1.5-1.1c0.4-0.4,0.7-0.9,1-1.5c0.3-0.6,0.5-1.4,0.5-2.3
		c0-0.8-0.1-1.5-0.4-2.1c-0.3-0.6-0.7-1.2-1.2-1.7c-0.5-0.5-1.1-0.9-1.8-1.2c-0.7-0.3-1.5-0.4-2.3-0.4h-7.5V29.5z M159.1,12.8h-3.5
		v6.7h-7.2v-6.7h-3.5v16.7h3.5v-6.8h7.2v6.8h3.5V12.8z M130.4,13.5c-1.1,0.4-2,1-2.8,1.8c-0.8,0.7-1.4,1.6-1.9,2.6
		c-0.5,1-0.7,2.1-0.7,3.2s0.2,2.2,0.7,3.2s1.1,1.9,1.9,2.6c0.8,0.7,1.7,1.3,2.8,1.8c1.1,0.4,2.3,0.7,3.5,0.7c1.1,0,2.2-0.2,3-0.5
		c0.9-0.3,1.6-0.7,2.2-1.1c0.7-0.5,1.3-1,1.7-1.6l-2.1-2.1c-0.3,0.4-0.8,0.8-1.2,1.1s-0.9,0.5-1.5,0.8c-0.6,0.2-1.3,0.3-2.1,0.3
		c-0.8,0-1.5-0.1-2.1-0.4c-0.7-0.3-1.2-0.6-1.7-1.1c-0.5-0.5-0.9-1-1.1-1.6c-0.3-0.6-0.4-1.3-0.4-2s0.1-1.4,0.4-2
		c0.3-0.6,0.7-1.2,1.1-1.6c0.5-0.5,1.1-0.8,1.7-1.1c0.6-0.3,1.4-0.4,2.1-0.4c0.8,0,1.4,0.1,2,0.3c0.6,0.2,1,0.5,1.4,0.8
		c0.4,0.3,0.8,0.7,1.2,1.1l2.2-2.1c-0.5-0.6-1-1.2-1.7-1.7c-0.6-0.4-1.3-0.8-2.1-1.1c-0.9-0.3-1.9-0.5-3-0.5
		C132.6,12.7,131.5,13.1,130.4,13.5 M117.7,25.8c-0.5,0.4-1.1,0.6-2,0.6c-0.6,0-1.2-0.1-1.7-0.3s-0.9-0.4-1.2-0.6
		c-0.4-0.2-0.7-0.5-1-0.8l-2.1,2c0.4,0.5,1,1,1.6,1.4c0.5,0.3,1.2,0.7,1.9,0.9c0.8,0.3,1.7,0.4,2.7,0.4c1,0,1.9-0.1,2.7-0.4
		c0.8-0.3,1.4-0.6,2-1c0.5-0.4,0.9-1,1.2-1.6c0.3-0.6,0.4-1.3,0.4-2c0-0.9-0.2-1.7-0.6-2.2c-0.4-0.6-0.9-1-1.5-1.4
		c-0.6-0.3-1.3-0.6-2-0.8c-0.7-0.2-1.4-0.4-2-0.6c-0.6-0.2-1.1-0.4-1.5-0.7c-0.4-0.3-0.6-0.6-0.6-1.1c0-0.4,0.2-0.8,0.6-1.2
		c0.4-0.3,0.9-0.5,1.7-0.5c0.5,0,0.9,0.1,1.3,0.2c0.4,0.1,0.7,0.3,1,0.5c0.3,0.2,0.6,0.4,0.8,0.7l2.1-2.2c-0.4-0.4-0.8-0.8-1.3-1.1
		c-0.5-0.3-1-0.5-1.7-0.8c-0.7-0.2-1.5-0.4-2.4-0.4c-0.9,0-1.7,0.1-2.4,0.4c-0.7,0.2-1.3,0.6-1.8,1c-0.5,0.4-0.9,0.9-1.2,1.5
		c-0.3,0.6-0.4,1.2-0.4,1.8c0,0.9,0.2,1.7,0.6,2.3c0.4,0.6,0.9,1,1.5,1.4c0.6,0.3,1.3,0.6,2,0.8c0.7,0.2,1.4,0.4,2,0.6
		c0.6,0.2,1.1,0.4,1.5,0.7c0.4,0.3,0.6,0.6,0.6,1.1C118.4,25,118.1,25.4,117.7,25.8 M98.7,28.9c0.4,0.4,0.8,0.5,1.3,0.5
		s1-0.2,1.3-0.5c0.4-0.4,0.5-0.8,0.5-1.2c0-0.5-0.2-0.9-0.5-1.2c-0.4-0.4-0.8-0.5-1.3-0.5s-1,0.2-1.3,0.5c-0.4,0.4-0.5,0.8-0.5,1.2
		C98.2,28.2,98.3,28.6,98.7,28.9 M90.8,19.8c-0.4,0.4-1,0.6-1.6,0.6h-3.7V16h3.7c0.7,0,1.2,0.2,1.6,0.6c0.4,0.4,0.6,1,0.6,1.6
		C91.4,18.9,91.2,19.4,90.8,19.8 M81.8,29.5h3.5v-5.9h3.1l3.2,5.9h3.8l-3.5-6.3c0.6-0.3,1-0.6,1.5-1.1c0.4-0.4,0.7-0.9,1-1.5
		c0.3-0.6,0.5-1.4,0.5-2.3c0-0.8-0.1-1.5-0.4-2.1c-0.3-0.7-0.7-1.2-1.2-1.7c-0.5-0.5-1.1-0.9-1.8-1.2c-0.7-0.3-1.5-0.4-2.3-0.4h-7.4
		v16.7H81.8z M69.5,16c0.7,0,1.4,0.1,2,0.4s1.1,0.6,1.6,1.1c0.4,0.5,0.8,1,1,1.6c0.3,0.6,0.4,1.3,0.4,2s-0.1,1.4-0.4,2
		c-0.3,0.6-0.6,1.2-1.1,1.6c-0.4,0.5-1,0.8-1.6,1.1c-0.6,0.3-1.2,0.4-1.9,0.4h-2.6V16H69.5z M63.2,12.8v16.7h6.2
		c1.2,0,2.3-0.2,3.4-0.6c1-0.4,1.9-1,2.7-1.8c0.8-0.7,1.3-1.6,1.8-2.6c0.4-1,0.6-2.1,0.6-3.2S77.8,19,77.4,18c-0.4-1-1-1.9-1.8-2.6
		c-0.8-0.7-1.6-1.3-2.7-1.8c-1-0.4-2.2-0.6-3.4-0.6h-6.2V12.8z"/>
	<path class="st0" d="M25.1,12.5h12.5C37.6,5.7,32,0,25.1,0C25.1,0,25.1,12.5,25.1,12.5z"/>
	<path class="st0" d="M25.1,37.6h12.5c0-6.9-5.7-12.5-12.5-12.5C25.1,25.1,25.1,37.6,25.1,37.6z"/>
	<path class="st1" d="M37.6,25.1h12.5c0-6.9-5.7-12.5-12.5-12.5C37.6,12.5,37.6,25.1,37.6,25.1z"/>
	<path class="st0" d="M25.1,12.5v12.5c-6.9,0-12.5-5.7-12.5-12.5C12.5,12.5,25.1,12.5,25.1,12.5z"/>
	<path class="st1" d="M12.5,25.1v12.5C5.7,37.6,0,32.1,0,25.1H12.5z"/>
	<path class="st0" d="M25.1,37.6v12.5c-6.9,0-12.5-5.7-12.5-12.5H25.1z"/>
</g>
</svg>
