<?xml version="1.0" encoding="utf-8"?>
<!-- Generator: Adobe Illustrator 25.4.1, SVG Export Plug-In . SVG Version: 6.00 Build 0)  -->
<svg version="1.1" id="Ebene_1" xmlns="http://www.w3.org/2000/svg" xmlns:xlink="http://www.w3.org/1999/xlink" x="0px" y="0px"
	 viewBox="0 0 55 55" style="enable-background:new 0 0 55 55;" xml:space="preserve">
<style type="text/css">
	.st0{fill:#325D8D;}
	.st1{fill:#98A6C6;}
</style>
<g>
	<path class="st0" d="M27.5,13.8h13.7C41.3,6.2,35.1,0,27.5,0V13.8z"/>
	<path class="st0" d="M27.5,41.3h13.7c0-7.6-6.2-13.7-13.7-13.7V41.3z"/>
	<path class="st1" d="M41.3,27.5H55c0-7.6-6.2-13.7-13.7-13.7V27.5z"/>
	<path class="st0" d="M27.5,13.8v13.7c-7.6,0-13.7-6.2-13.7-13.7H27.5z"/>
	<path class="st1" d="M13.7,27.5v13.7C6.2,41.3,0,35.1,0,27.5H13.7z"/>
	<path class="st0" d="M27.5,41.3V55c-7.6,0-13.7-6.2-13.7-13.7H27.5z"/>
</g>
</svg>
