<?xml version="1.0" standalone="no"?>
<!DOCTYPE svg PUBLIC "-//W3C//DTD SVG 20010904//EN"
 "http://www.w3.org/TR/2001/REC-SVG-20010904/DTD/svg10.dtd">
<svg version="1.0" xmlns="http://www.w3.org/2000/svg"
 width="700.000000pt" height="700.000000pt" viewBox="0 0 700.000000 700.000000"
 preserveAspectRatio="xMidYMid meet">
<metadata>
Created by potrace 1.14, written by Peter Selinger 2001-2017
</metadata>
<g transform="translate(0.000000,700.000000) scale(0.100000,-0.100000)"
fill="#000000" stroke="none">
<path d="M3550 6801 l-25 -6 0 -830 0 -830 823 0 c553 0 826 -3 830 -10 4 -5
7 -374 8 -820 1 -445 2 -815 3 -820 1 -7 282 -10 829 -10 l827 0 -1 50 c-7
508 -285 1019 -714 1314 -188 129 -438 236 -630 267 -14 2 -34 6 -45 9 -37 7
-169 19 -220 18 l-51 0 0 51 c-1 59 -13 190 -19 209 -2 6 -7 30 -10 52 -3 22
-13 67 -21 100 -179 691 -768 1192 -1469 1250 -38 4 -74 7 -80 9 -5 1 -21 0
-35 -3z"/>
<path d="M1866 5132 c-12 -11 15 -267 36 -347 5 -22 12 -50 14 -63 10 -55 70
-216 115 -308 253 -521 766 -879 1334 -929 133 -12 145 -12 153 -1 11 15 9
1632 -1 1643 -8 7 -1644 13 -1651 5z"/>
<path d="M203 3466 c-14 -22 8 -238 37 -361 47 -202 149 -428 267 -595 134
-188 346 -375 559 -492 133 -74 347 -152 469 -172 64 -11 262 -32 292 -31 l28
0 0 830 0 830 -823 0 c-482 0 -826 -4 -829 -9z"/>
<path d="M3525 2646 l0 -831 -815 0 c-448 1 -822 -1 -831 -3 -14 -3 -16 -15
-13 -65 13 -244 64 -446 164 -652 252 -521 762 -878 1330 -931 122 -11 143
-12 154 -8 8 3 11 239 11 820 0 449 3 821 7 827 5 9 221 12 825 13 450 1 821
2 825 3 14 2 -7 213 -33 336 -122 578 -546 1053 -1102 1234 -95 32 -209 60
-262 66 -16 2 -52 6 -80 9 -27 4 -79 8 -115 10 l-65 4 0 -832z"/>
</g>
</svg>
